HIERARCHY
ROOT hip
{
  OFFSET 0 0 0
  CHANNELS 6 Xposition Yposition Zposition Zrotation Yrotation Xrotation
  JOINT abdomen
  {
    OFFSET 0 20.6881 -0.73152
    CHANNELS 3 Zrotation Xrotation Yrotation
    JOINT chest
    {
      OFFSET 0 11.7043 -0.48768
      CHANNELS 3 Zrotation Xrotation Yrotation
      JOINT neck
      {
        OFFSET 0 22.1894 -2.19456
        CHANNELS 3 Zrotation Xrotation Yrotation
        JOINT head
        {
          OFFSET -0.24384 7.07133 1.2192
          CHANNELS 3 Zrotation Xrotation Yrotation
          JOINT leftEye
          {
            OFFSET 4.14528 8.04674 8.04672
            CHANNELS 3 Zrotation Xrotation Yrotation
            End Site
            {
              OFFSET 1 0 0
            }
          }
          JOINT rightEye
          {
            OFFSET -3.6576 8.04674 8.04672
            CHANNELS 3 Zrotation Xrotation Yrotation
            End Site
            {
              OFFSET 1 0 0
            }
          }
        }
      }
      JOINT rCollar
      {
        OFFSET -2.68224 19.2634 -4.8768
        CHANNELS 3 Zrotation Xrotation Yrotation
        JOINT rShldr
        {
          OFFSET -8.77824 -1.95073 1.46304
          CHANNELS 3 Zrotation Xrotation Yrotation
          JOINT rForeArm
          {
            OFFSET -28.1742 -1.7115 0.48768
            CHANNELS 3 Zrotation Xrotation Yrotation
            JOINT rHand
            {
              OFFSET -22.5879 0.773209 7.07136
              CHANNELS 3 Zrotation Xrotation Yrotation
              JOINT rThumb1
              {
                OFFSET -1.2192 -0.487915 3.41376
                CHANNELS 3 Zrotation Xrotation Yrotation
                JOINT rThumb2
                {
                  OFFSET -3.37035 -0.52449 3.41376
                  CHANNELS 3 Zrotation Xrotation Yrotation
                  End Site
                  {
                    OFFSET -1.78271 -1.18214 1.43049
                  }
                }
              }
              JOINT rIndex1
              {
                OFFSET -7.75947 0.938293 5.60832
                CHANNELS 3 Zrotation Xrotation Yrotation
                JOINT rIndex2
                {
                  OFFSET -2.54057 -0.884171 1.56538
                  CHANNELS 3 Zrotation Xrotation Yrotation
                  End Site
                  {
                    OFFSET -1.62519 -0.234802 1.16502
                  }
                }
              }
              JOINT rMid1
              {
                OFFSET -8.24714 1.18213 3.41376
                CHANNELS 3 Zrotation Xrotation Yrotation
                JOINT rMid2
                {
                  OFFSET -3.10165 -0.590103 1.0647
                  CHANNELS 3 Zrotation Xrotation Yrotation
                  End Site
                  {
                    OFFSET -2.48547 -0.328903 0.83742
                  }
                }
              }
              JOINT rRing1
              {
                OFFSET -8.82822 0.546677 1.51678
                CHANNELS 3 Zrotation Xrotation Yrotation
                JOINT rRing2
                {
                  OFFSET -2.60934 -0.819778 -0.0198488
                  CHANNELS 3 Zrotation Xrotation Yrotation
                  End Site
                  {
                    OFFSET -2.33842 -0.294052 0.168128
                  }
                }
              }
              JOINT rPinky1
              {
                OFFSET -8.27202 -0.0477905 -0.4584
                CHANNELS 3 Zrotation Xrotation Yrotation
                JOINT rPinky2
                {
                  OFFSET -1.82734 -0.647385 -0.700984
                  CHANNELS 3 Zrotation Xrotation Yrotation
                  End Site
                  {
                    OFFSET -1.69225 -0.51767 -0.607171
                  }
                }
              }
            }
          }
        }
      }
      JOINT lCollar
      {
        OFFSET 2.68224 19.2634 -4.8768
        CHANNELS 3 Zrotation Xrotation Yrotation
        JOINT lShldr
        {
          OFFSET 8.77824 -1.95073 1.46304
          CHANNELS 3 Zrotation Xrotation Yrotation
          JOINT lForeArm
          {
            OFFSET 28.1742 -1.7115 0.48768
            CHANNELS 3 Zrotation Xrotation Yrotation
            JOINT lHand
            {
              OFFSET 22.5879 0.773209 7.07136
              CHANNELS 3 Zrotation Xrotation Yrotation
              JOINT lThumb1
              {
                OFFSET 1.2192 -0.487915 3.41376
                CHANNELS 3 Zrotation Xrotation Yrotation
                JOINT lThumb2
                {
                  OFFSET 3.37035 -0.52449 3.41376
                  CHANNELS 3 Zrotation Xrotation Yrotation
                  End Site
                  {
                    OFFSET 1.78271 -1.18214 1.43049
                  }
                }
              }
              JOINT lIndex1
              {
                OFFSET 7.75947 0.938293 5.60832
                CHANNELS 3 Zrotation Xrotation Yrotation
                JOINT lIndex2
                {
                  OFFSET 2.54057 -0.884171 1.56538
                  CHANNELS 3 Zrotation Xrotation Yrotation
                  End Site
                  {
                    OFFSET 1.62519 -0.234802 1.16502
                  }
                }
              }
              JOINT lMid1
              {
                OFFSET 8.24714 1.18213 3.41376
                CHANNELS 3 Zrotation Xrotation Yrotation
                JOINT lMid2
                {
                  OFFSET 3.10165 -0.590103 1.0647
                  CHANNELS 3 Zrotation Xrotation Yrotation
                  End Site
                  {
                    OFFSET 2.48547 -0.328903 0.83742
                  }
                }
              }
              JOINT lRing1
              {
                OFFSET 8.82822 0.546677 1.51678
                CHANNELS 3 Zrotation Xrotation Yrotation
                JOINT lRing2
                {
                  OFFSET 2.60934 -0.819778 -0.0198488
                  CHANNELS 3 Zrotation Xrotation Yrotation
                  End Site
                  {
                    OFFSET 2.33842 -0.294052 0.168128
                  }
                }
              }
              JOINT lPinky1
              {
                OFFSET 8.27202 -0.0477905 -0.4584
                CHANNELS 3 Zrotation Xrotation Yrotation
                JOINT lPinky2
                {
                  OFFSET 1.82734 -0.647385 -0.700984
                  CHANNELS 3 Zrotation Xrotation Yrotation
                  End Site
                  {
                    OFFSET 1.69225 -0.51767 -0.607171
                  }
                }
              }
            }
          }
        }
      }
    }
  }
  JOINT rButtock
  {
    OFFSET -8.77824 4.35084 1.2192
    CHANNELS 3 Zrotation Xrotation Yrotation
    JOINT rThigh
    {
      OFFSET 0 -1.70687 -2.19456
      CHANNELS 3 Zrotation Xrotation Yrotation
      JOINT rShin
      {
        OFFSET 0 -36.8199 0.73152
        CHANNELS 3 Zrotation Xrotation Yrotation
        JOINT rFoot
        {
          OFFSET 0.73152 -45.1104 -5.12064
          CHANNELS 3 Zrotation Xrotation Yrotation
          End Site
          {
            OFFSET -1.1221 -3.69964 12.103
          }
        }
      }
    }
  }
  JOINT lButtock
  {
    OFFSET 8.77824 4.35084 1.2192
    CHANNELS 3 Zrotation Xrotation Yrotation
    JOINT lThigh
    {
      OFFSET 0 -1.70687 -2.19456
      CHANNELS 3 Zrotation Xrotation Yrotation
      JOINT lShin
      {
        OFFSET 0 -36.8199 0.73152
        CHANNELS 3 Zrotation Xrotation Yrotation
        JOINT lFoot
        {
          OFFSET -0.73152 -45.1104 -5.12064
          CHANNELS 3 Zrotation Xrotation Yrotation
          End Site
          {
            OFFSET 1.1221 -3.69964 12.103
          }
        }
      }
    }
  }
}
MOTION
Frames:	4
Frame Time:	0.03333
-0.013370998203754425 -8.797217905521393 -0.013120844960212708 -4.015721321105957 0.42827537655830383 6.739551067352295 -2.1065330505371094 13.985356330871582 3.9710264205932617 2.539386034011841 -9.42692756652832 1.2176884412765503 -5.030306339263916 15.062755584716797 -3.8533389568328857 8.604654312133789 -24.244787216186523 -5.591829299926758 0.008273477666079998 0.086003378033638 0.0657331570982933 -0.14523933827877045 0.07345382124185562 -0.08745954930782318 -0.06738826632499695 0.0033244432415813208 0.1213284358382225 47.105674743652344 38.24934005737305 17.242000579833984 -27.31070899963379 -27.276203155517578 62.93401336669922 -0.1817440539598465 -10.107845306396484 -1.4200388193130493 -0.019862530753016472 -0.017237907275557518 0.09124380350112915 0.044701579958200455 -0.06957080215215683 0.039498407393693924 0.05844411626458168 -0.020987946540117264 0.03485824912786484 7.58693265914917 5.4808735847473145 0.3809150159358978 0.04966548830270767 0.013634040020406246 0.027838926762342453 2.8660342693328857 1.016266942024231 0.10249385982751846 0.03871027007699013 -0.003449352690950036 -0.09715891629457474 10.351113319396973 0.7363817691802979 -0.011019565165042877 0.028765730559825897 -0.029193440452218056 0.014930589124560356 2.24336314201355 -0.7237807512283325 -0.2545517385005951 0.04169391468167305 -0.00010326023038942367 0.0026990878395736217 -54.699859619140625 39.744693756103516 -27.013912200927734 26.69759750366211 -25.269210815429688 -59.66970443725586 0.23642463982105255 -12.031661033630371 1.779044508934021 0.049954354763031006 -0.04115980491042137 -0.0389677919447422 -0.007568045984953642 0.04413079470396042 -0.07606442272663116 -0.039323896169662476 0.0236421637237072 0.04202279821038246 -7.815620422363281 5.567801475524902 -0.4318016767501831 -0.06418105959892273 0.05762501060962677 -0.023783951997756958 -2.8990890979766846 0.9406220316886902 -0.12725213170051575 0.05686468258500099 -0.05092524737119675 -0.019812490791082382 -10.266241073608398 0.7663840055465698 0.03575913608074188 -0.05635692924261093 -0.04219028726220131 0.03936873376369476 -2.22831654548645 -0.7604013681411743 0.33665037155151367 -0.01001038122922182 0.010963690467178822 -0.04224736616015434 -22.378173828125 -38.107173919677734 -18.54068374633789 -1.4691522121429443 63.72944641113281 2.499671459197998 -4.012866020202637 -11.444467544555664 -10.691886901855469 0.025215256959199905 -0.002887135138735175 0.022509146481752396 29.575841903686523 -39.739139556884766 22.526090621948242 1.3293266296386719 65.25993347167969 -2.6528916358947754 4.291096210479736 -10.8388671875 13.463545799255371
-0.031897611916065216 -8.792135864496231 -0.027614831924438477 -3.808068037033081 0.5386975407600403 6.973333835601807 -2.11266827583313 14.024725914001465 4.016669750213623 2.4816794395446777 -9.507800102233887 1.133365511894226 -4.973594665527344 15.052875518798828 -3.792287826538086 8.543038368225098 -24.22659683227539 -5.410645484924316 0.011275644414126873 0.05742251127958298 0.07760091871023178 -0.11220991611480713 0.06333813816308975 -0.04123327136039734 -0.04895791411399841 0.011316120624542236 0.08718231320381165 47.02555465698242 38.26567077636719 17.333011627197266 -27.35009002685547 -27.338857650756836 63.037601470947266 -0.19453604519367218 -9.83874225616455 -1.3902167081832886 -0.02494005672633648 -0.03375927358865738 0.11276668310165405 0.046895045787096024 -0.04590708389878273 0.13276426494121552 0.06324277818202972 -0.033745016902685165 0.029437480494379997 7.567173004150391 5.478872776031494 0.363848477602005 0.030326727777719498 0.01970476470887661 0.049149803817272186 2.8482885360717773 0.9684767723083496 0.08969417959451675 0.0915021225810051 -0.029978569597005844 -0.05158669129014015 10.350279808044434 0.7226715683937073 -0.08554631471633911 0.020409295335412025 0.003970573656260967 0.018349019810557365 2.25982928276062 -0.7181202173233032 -0.2769603431224823 0.08147259801626205 -0.005013978108763695 -0.009638676419854164 -54.61232376098633 39.73246765136719 -26.894758224487305 26.715164184570312 -25.408958435058594 -59.91919708251953 0.20049285888671875 -12.283382415771484 1.8263764381408691 0.022043736651539803 -0.03566602244973183 -0.04874352738261223 0.006061620078980923 0.054467543959617615 -0.09492757171392441 -0.05513206496834755 0.028815999627113342 0.06341081857681274 -7.873730659484863 5.555753707885742 -0.3996846079826355 -0.08970567584037781 0.01278710924088955 -0.058041464537382126 -2.8714840412139893 0.9674746990203857 -0.10979883372783661 0.07800793647766113 -0.06577665358781815 0.004527748096734285 -10.216493606567383 0.7839033603668213 0.031639110296964645 -0.04205978289246559 -0.036852531135082245 0.08814726024866104 -2.2477567195892334 -0.7623127698898315 0.3405364453792572 -0.03340565413236618 0.003366827731952071 -0.007680909242480993 -22.62558364868164 -38.247249603271484 -18.724618911743164 -1.5797785520553589 63.87942123413086 2.6281611919403076 -3.9515140056610107 -11.438435554504395 -10.612576484680176 0.05939221382141113 0.0046760570257902145 0.049212150275707245 29.60014533996582 -39.770145416259766 22.58475685119629 1.4127647876739502 65.58059692382812 -2.7363317012786865 4.368170738220215 -11.057456970214844 13.610074043273926
-0.055410340428352356 -8.424615859985352 -0.061227940022945404 -14.996125221252441 -29.98968505859375 4.656144618988037 10.087772369384766 13.599130630493164 11.869958877563477 -0.8050472140312195 -7.973865509033203 3.5367555618286133 -2.337108612060547 12.935274124145508 1.310138463973999 5.4184346199035645 -23.350887298583984 3.9423725605010986 -0.15904293954372406 0.1169271469116211 -0.14794117212295532 0.07226495444774628 0.05960187315940857 -0.0026443686801940203 -0.09148882329463959 -0.013069072738289833 0.05562138557434082 65.72232818603516 43.40278625488281 -1.3583738803863525 -20.693553924560547 -14.058260917663574 40.64699935913086 -0.3094898760318756 13.917466163635254 1.9632688760757446 0.09350814670324326 0.07399538904428482 0.0521964505314827 0.02999049797654152 -0.16477620601654053 0.20285813510417938 0.034599997103214264 0.14445754885673523 -0.10451096296310425 7.578542709350586 5.515710830688477 0.4395674169063568 -0.015752660110592842 0.05101469159126282 -0.02310430258512497 2.915834665298462 1.113976240158081 0.009016316384077072 0.2161473035812378 0.044673580676317215 -0.12485789507627487 10.356613159179688 0.7666501402854919 0.14243477582931519 -0.10961032658815384 -0.020383205264806747 -0.035140279680490494 2.392670154571533 -0.6396124958992004 -0.25608229637145996 0.10589343309402466 -0.06063080579042435 0.0004982906975783408 -65.56211853027344 30.4187068939209 -14.59614086151123 14.21292495727539 -7.115621089935303 -26.251916885375977 0.27028653025627136 16.021427154541016 -2.381964683532715 0.13276948034763336 -0.10647555440664291 0.051048360764980316 -0.21680296957492828 -0.09131019562482834 -0.23052377998828888 -0.0428495891392231 -0.011891278438270092 -0.03614075481891632 -7.908403396606445 5.442264080047607 -0.4250146448612213 -0.11885056644678116 -0.09089609980583191 0.14760296046733856 -2.7736873626708984 0.8914285898208618 -0.10692712664604187 0.028076354414224625 -0.030139492824673653 0.07407911121845245 -10.34118366241455 0.7108852863311768 0.1628577560186386 0.12171009927988052 0.08278955519199371 -0.023636437952518463 -2.3302056789398193 -0.8168191313743591 0.23767220973968506 0.10945992171764374 0.13308967649936676 -0.019249187782406807 -11.636482238769531 7.441555500030518 -4.91445779800415 0.020498398691415787 38.674156188964844 2.071524143218994 -11.135636329650879 -18.797801971435547 -29.344573974609375 0.09432098269462585 -0.13674595952033997 -0.042930103838443756 71.39230346679688 -51.36644744873047 60.74509811401367 3.3081066608428955 77.3647689819336 -3.9088871479034424 0.31058424711227417 -4.944153785705566 -0.38901495933532715
-0.09901914745569229 -8.159960061311722 -0.13037482276558876 -14.110815048217773 -30.28826141357422 4.352262020111084 11.935632705688477 16.198678970336914 14.029025077819824 -0.9893494248390198 -8.168340682983398 4.182473182678223 -2.050077438354492 13.01894474029541 1.7130533456802368 5.632999897003174 -24.168720245361328 4.610235214233398 -0.20675690472126007 0.15252470970153809 -0.29722726345062256 0.023023691028356552 0.03880750760436058 -0.07982762157917023 -0.07480798661708832 0.024821985512971878 -0.0015522449975833297 64.83283996582031 44.03482437133789 -0.7171006798744202 -20.64104652404785 -13.648134231567383 40.21544647216797 -0.3050713539123535 13.086204528808594 1.8797776699066162 0.005376013927161694 -0.10486394912004471 0.12508220970630646 0.01471004355698824 -0.22604632377624512 0.09862587600946426 0.28789228200912476 0.15042690932750702 0.021579807624220848 7.590034484863281 5.490741729736328 0.41092583537101746 0.018852856010198593 -0.0073118130676448345 -0.06079727038741112 2.976893663406372 0.9480864405632019 -0.06840480864048004 0.3496888279914856 -0.003182043554261327 -0.18299679458141327 10.459404945373535 0.7739285826683044 0.11361948400735855 0.007917357608675957 -0.07257978618144989 -0.07661034911870956 2.352957010269165 -0.5018779039382935 -0.36863231658935547 0.05084875598549843 -0.1462562084197998 0.10164888948202133 -66.07051086425781 32.916839599609375 -14.827330589294434 13.695825576782227 -6.706272125244141 -24.92974281311035 0.2688075006008148 15.772777557373047 -2.3415815830230713 0.0661340057849884 -0.18368268013000488 0.03745177388191223 -0.13895346224308014 0.04720044881105423 -0.09225771576166153 -0.058786507695913315 -0.16117370128631592 -0.008348708972334862 -7.911746501922607 5.436395645141602 -0.48607203364372253 -0.19114430248737335 -0.06089959666132927 0.13335248827934265 -2.860677480697632 1.062895655632019 -0.22490504384040833 -0.12205541878938675 -0.05450507998466492 0.21976794302463531 -10.304544448852539 0.6151465773582458 0.03237225487828255 0.08384941518306732 -0.009244720451533794 -0.08825956284999847 -2.231321334838867 -0.7500791549682617 0.23640304803848267 0.08810435235500336 -0.006173988804221153 -0.14777973294258118 -13.672182083129883 8.334284782409668 -3.2686405181884766 -0.07488547265529633 39.77630615234375 2.2138702869415283 -10.983606338500977 -19.064889907836914 -28.991979598999023 -0.11203357577323914 -0.09245800971984863 -0.14197708666324615 70.2727279663086 -47.41581726074219 59.56100845336914 3.171734571456909 78.72570037841797 -3.9733705520629883 0.2593080997467041 -6.612333297729492 -1.159130573272705
